<?xml version="1.0" encoding="UTF-8" standalone="no"?>
<!-- Created with Inkscape (http://www.inkscape.org/) -->

<svg
   xmlns:dc="http://purl.org/dc/elements/1.1/"
   xmlns:cc="http://creativecommons.org/ns#"
   xmlns:rdf="http://www.w3.org/1999/02/22-rdf-syntax-ns#"
   xmlns:svg="http://www.w3.org/2000/svg"
   xmlns="http://www.w3.org/2000/svg"
   xmlns:sodipodi="http://sodipodi.sourceforge.net/DTD/sodipodi-0.dtd"
   xmlns:inkscape="http://www.inkscape.org/namespaces/inkscape"
   id="svg3039"
   version="1.1"
   inkscape:version="0.91 r13725"
   width="104.5577"
   height="115"
   sodipodi:docname="logo.svg">
  <metadata
     id="metadata3045">
    <rdf:RDF>
      <cc:Work
         rdf:about="">
        <dc:format>image/svg+xml</dc:format>
        <dc:type
           rdf:resource="http://purl.org/dc/dcmitype/StillImage" />
        <dc:title></dc:title>
      </cc:Work>
    </rdf:RDF>
  </metadata>
  <defs
     id="defs3043">
    <filter
       id="filter4992"
       inkscape:label="filter1" />
    <filter
       id="filter6114"
       inkscape:label="Color outline"
       inkscape:menu="Morphology"
       inkscape:menu-tooltip="Draws a colored outline around"
       width="1.5"
       height="1.5"
       x="-0.25"
       y="-0.25"
       style="color-interpolation-filters:sRGB">
      <feGaussianBlur
         id="feGaussianBlur6116"
         in="SourceAlpha"
         stdDeviation="3"
         result="blur" />
      <feColorMatrix
         id="feColorMatrix6118"
         values="1 0 0 0 0 0 1 0 0 0 0 0 1 0 0 0 0 0 10 -1 "
         result="result4" />
      <feFlood
         id="feFlood6120"
         result="result1"
         flood-color="rgb(154,27,74)"
         in="blur" />
      <feComposite
         id="feComposite6122"
         in2="result4"
         result="result2"
         in="result1"
         operator="atop" />
      <feComposite
         id="feComposite6124"
         in2="result2"
         in="SourceGraphic"
         result="result3"
         operator="atop" />
    </filter>
  </defs>
  <sodipodi:namedview
     pagecolor="#ffffff"
     bordercolor="#666666"
     borderopacity="1"
     objecttolerance="10"
     gridtolerance="10"
     guidetolerance="10"
     inkscape:pageopacity="0"
     inkscape:pageshadow="2"
     id="namedview3041"
     showgrid="false"
     inkscape:zoom="1.6053235"
     inkscape:cx="143.48478"
     inkscape:cy="238.06557"
     inkscape:window-x="1916"
     inkscape:window-y="-4"
     inkscape:window-maximized="1"
     inkscape:current-layer="svg3039"
     inkscape:window-width="1920"
     inkscape:window-height="1061"
     fit-margin-top="0"
     fit-margin-left="0"
     fit-margin-right="0"
     fit-margin-bottom="0" />
  <path
     style="opacity:1;fill:#000000;fill-rule:nonzero;stroke:#800080;stroke-width:1.67555618;stroke-linecap:butt;stroke-linejoin:miter;stroke-miterlimit:4;stroke-dasharray:none;stroke-dashoffset:0;stroke-opacity:1"
     d="m 78.810974,0.83777809 c -5.994465,0 -10.928419,4.48461001 -11.669052,10.27773991 l -34.199295,6.61246 c -1.590743,-2.27144 -4.227317,-3.77 -7.210875,-3.77 -4.858624,0 -8.79667,3.93804 -8.79667,8.79667 0,2.79436 1.304775,5.28522 3.336152,6.89671 l -8.003767,23.68218 c -0.03498,-3.1e-4 -0.06964,0 -0.104722,0 -6.2585714,0 -11.32496691,5.0664 -11.32496691,11.32497 0,6.25857 5.06639551,11.33993 11.32496691,11.33993 3.375699,0 6.40646,-1.48799 8.482497,-3.82986 l 36.862245,14.96033 c -0.200044,1.22727 -0.314166,2.48619 -0.314166,3.77001 0,12.846542 10.416759,23.263302 23.263288,23.263302 12.846544,0 23.263311,-10.41676 23.263311,-23.263302 0,-11.96131 -8.07389,-21.81265 -19.687791,-23.1137 l -3.351114,-43.72903 c 5.141566,-1.26527 9.918702,-5.89764 9.918702,-11.42969 0,-6.5056099 -5.283117,-11.78871991 -11.788743,-11.78871991 z M 67.815143,16.845318 c 0.373521,0.97138 0.877284,1.88015 1.481068,2.70783 l -16.920133,13.13515 c -2.033717,-0.91554 -4.282341,-1.43619 -6.657334,-1.43619 -3.412786,0 -6.585702,1.06017 -9.200598,2.8574 l -4.413296,-5.29593 c 1.387643,-1.45892 2.26699,-3.39471 2.393652,-5.53533 z m 4.35345,5.5054 c 1.116108,0.76434 1.405305,1.33067 2.7527,1.67556 l 3.366068,43.81878 c -3.56478,0.4788 -7.833574,1.7766 -10.696628,3.68024 L 57.193321,59.018468 c 2.949904,-2.94232 4.772349,-7.00886 4.772349,-11.50448 0,-5.07905 -2.320013,-9.61624 -5.969183,-12.5966 z m -43.384935,8.64707 4.757383,5.74476 c -2.539469,2.86759 -4.084168,6.6398 -4.084168,10.77144 0,0.95605 0.09596,1.8868 0.254325,2.79757 l -8.961234,6.95655 c -0.831108,-0.96498 -1.822545,-1.78284 -2.932222,-2.42357 l 7.869129,-23.29323 c 0.01512,8e-5 0.02972,0 0.04484,0 1.07455,0 2.100009,-0.20087 3.051907,-0.55352 z m 2.184208,23.36802 c 2.584808,5.55238 8.222662,9.39508 14.750878,9.39508 3.049968,0 5.894162,-0.84243 8.332905,-2.30389 l 10.427338,12.55171 c -2.253762,2.13138 -4.080321,4.70292 -5.340837,7.58489 L 23.248338,67.022248 c 0.161289,-0.76132 0.239366,-1.55438 0.239366,-2.36374 0,-1.38562 -0.247963,-2.70731 -0.703135,-3.93457 z"
     id="path3220"
     inkscape:connector-curvature="0"
     inkscape:export-filename="C:\Users\kasra\Desktop\path3220.png"
     inkscape:export-xdpi="139.60001"
     inkscape:export-ydpi="139.60001"
     sodipodi:nodetypes="sccssccsssccsssccsscccscccccccccsccccsccccscccsccccscc" />
</svg>
