<?xml version="1.0" encoding="UTF-8" standalone="no"?>
<!-- Created with Inkscape (http://www.inkscape.org/) -->

<svg
   xmlns:dc="http://purl.org/dc/elements/1.1/"
   xmlns:cc="http://creativecommons.org/ns#"
   xmlns:rdf="http://www.w3.org/1999/02/22-rdf-syntax-ns#"
   xmlns:svg="http://www.w3.org/2000/svg"
   xmlns="http://www.w3.org/2000/svg"
   xmlns:sodipodi="http://sodipodi.sourceforge.net/DTD/sodipodi-0.dtd"
   xmlns:inkscape="http://www.inkscape.org/namespaces/inkscape"
   id="svg3039"
   version="1.1"
   inkscape:version="0.91 r13725"
   width="416"
   height="444"
   sodipodi:docname="logo.svg">
  <metadata
     id="metadata3045">
    <rdf:RDF>
      <cc:Work
         rdf:about="">
        <dc:format>image/svg+xml</dc:format>
        <dc:type
           rdf:resource="http://purl.org/dc/dcmitype/StillImage" />
        <dc:title />
      </cc:Work>
    </rdf:RDF>
  </metadata>
  <defs
     id="defs3043">
    <filter
       id="filter4992"
       inkscape:label="filter1" />
    <filter
       id="filter6114"
       inkscape:label="Color outline"
       inkscape:menu="Morphology"
       inkscape:menu-tooltip="Draws a colored outline around"
       width="1.5"
       height="1.5"
       x="-0.25"
       y="-0.25"
       color-interpolation-filters="sRGB">
      <feGaussianBlur
         id="feGaussianBlur6116"
         in="SourceAlpha"
         stdDeviation="3"
         result="blur" />
      <feColorMatrix
         id="feColorMatrix6118"
         values="1 0 0 0 0 0 1 0 0 0 0 0 1 0 0 0 0 0 10 -1 "
         result="result4" />
      <feFlood
         id="feFlood6120"
         result="result1"
         flood-color="rgb(154,27,74)"
         in="blur" />
      <feComposite
         id="feComposite6122"
         in2="result4"
         result="result2"
         in="result1"
         operator="atop" />
      <feComposite
         id="feComposite6124"
         in2="result2"
         in="SourceGraphic"
         result="result3"
         operator="atop" />
    </filter>
  </defs>
  <sodipodi:namedview
     pagecolor="#ffffff"
     bordercolor="#666666"
     borderopacity="1"
     objecttolerance="10"
     gridtolerance="10"
     guidetolerance="10"
     inkscape:pageopacity="0"
     inkscape:pageshadow="2"
     id="namedview3041"
     showgrid="false"
     inkscape:zoom="1.6053235"
     inkscape:cx="19.962325"
     inkscape:cy="238.06557"
     inkscape:window-x="1916"
     inkscape:window-y="-4"
     inkscape:window-maximized="1"
     inkscape:current-layer="svg3039"
     inkscape:window-width="1920"
     inkscape:window-height="1061" />
  <path
     style="opacity:1;fill:#000000;fill-rule:nonzero;stroke:#800080;stroke-opacity:1;stroke-width:3.5;stroke-miterlimit:4;stroke-dasharray:none;stroke-dashoffset:0;stroke-linejoin:miter;stroke-linecap:butt"
     d="m 241.37946,103.25126 c -12.5216,0 -22.82794,9.36774 -24.375,21.46876 l -71.4375,13.8125 c -3.32284,-4.74471 -8.83027,-7.875 -15.0625,-7.875 -10.14898,0 -18.375,8.22602 -18.375,18.375 0,5.83702 2.72549,11.0401 6.96875,14.40625 l -16.71874,49.46875 c -0.0731,-6.6e-4 -0.14547,0 -0.21875,0 -13.073269,0 -23.656253,10.58298 -23.656253,23.65625 0,13.07326 10.582984,23.6875 23.656253,23.6875 7.05136,0 13.38219,-3.10819 17.71874,-8 l 77,31.25 c -0.41787,2.56359 -0.65625,5.19328 -0.65625,7.875 0,26.8346 21.75916,48.59375 48.59375,48.59375 26.8346,0 48.59375,-21.75915 48.59375,-48.59375 0,-24.98549 -16.86519,-45.56355 -41.125,-48.28125 l -7,-91.34375 c 10.74,-2.64299 20.71875,-12.31934 20.71875,-23.875 0,-13.58931 -11.03568,-24.62501 -24.625,-24.62501 z m -22.96875,33.43751 c 0.78024,2.02908 1.83252,3.92736 3.09375,5.65625 l -35.34375,27.4375 c -4.24816,-1.91242 -8.94522,-3 -13.90625,-3 -7.12883,0 -13.7566,2.21454 -19.21875,5.96875 l -9.21875,-11.0625 c 2.89859,-3.04748 4.73542,-7.09107 5,-11.5625 z m 9.09375,11.5 c 2.3314,1.59661 2.93548,2.77958 5.75,3.5 l 7.03125,91.53125 c -7.44633,1.00013 -16.36325,3.71105 -22.34375,7.6875 l -21.71875,-26.125 c 6.16195,-6.1461 9.96875,-14.64052 9.96875,-24.03125 0,-10.60939 -4.84616,-20.08694 -12.46875,-26.3125 z m -90.625,18.0625 9.9375,12 c -5.30459,5.98999 -8.53125,13.86962 -8.53125,22.5 0,1.99709 0.20045,3.94128 0.53125,5.84375 l -18.71875,14.53125 c -1.73607,-2.01572 -3.80704,-3.7241 -6.125,-5.0625 l 16.4375,-48.65625 c 0.0316,1.6e-4 0.0621,0 0.0937,0 2.24458,0 4.38662,-0.41961 6.375,-1.15625 z m 4.5625,48.8125 c 5.3993,11.59814 17.17598,19.625 30.8125,19.625 6.37096,0 12.31207,-1.75973 17.40625,-4.8125 l 21.78125,26.21875 c -4.70778,4.45215 -8.52321,9.82372 -11.15625,15.84375 l -74.96875,-30.4375 c 0.33691,-1.59027 0.5,-3.24687 0.5,-4.9375 0,-2.89436 -0.51796,-5.65519 -1.46875,-8.21875 z"
     id="path3220"
     inkscape:connector-curvature="0"
     inkscape:export-filename="C:\Users\kasra\Desktop\path3220.png"
     inkscape:export-xdpi="139.60001"
     inkscape:export-ydpi="139.60001"
     sodipodi:nodetypes="sccssccsssccsssccsscccscccccccccsccccsccccscccsccccscc" />
</svg>
