<?xml version="1.0" encoding="UTF-8" standalone="yes"?><svg xmlns="http://www.w3.org/2000/svg" xmlns:xlink="http://www.w3.org/1999/xlink" height="195px" style="width:706px;height:195px;" version="1.1" viewBox="0 0 706 195" width="706px"><defs><filter height="300%" id="f1" width="300%" x="-1" y="-1"><feGaussianBlur result="blurOut" stdDeviation="2.0"/><feColorMatrix in="blurOut" result="blurOut2" type="matrix" values="0 0 0 0 0 0 0 0 0 0 0 0 0 0 0 0 0 0 .4 0"/><feOffset dx="4.0" dy="4.0" in="blurOut2" result="blurOut3"/><feBlend in="SourceGraphic" in2="blurOut3" mode="normal"/></filter></defs><g><rect fill="#FEFECE" filter="url(#f1)" height="52.8047" style="stroke: #A80036; stroke-width: 1.5;" width="162" x="25.5" y="8"/><ellipse cx="85.75" cy="24" fill="#B4A7E5" rx="11" ry="11" style="stroke: #A80036; stroke-width: 1.0;"/><path d="M86.7031,20.7813 L86.7031,27.2969 L88.4219,27.2969 C88.875,27.2969 89.0156,27.3281 89.1875,27.4531 C89.4219,27.625 89.5313,27.875 89.5313,28.1563 C89.5313,28.7188 89.1719,29 88.4219,29 L83.2813,29 C82.875,29 82.6719,28.9531 82.5156,28.8281 C82.2969,28.6719 82.1563,28.4063 82.1563,28.1563 C82.1563,27.8594 82.3125,27.5781 82.5625,27.4219 C82.7188,27.3125 82.8438,27.2969 83.2813,27.2969 L85,27.2969 L85,20.7813 L83.2813,20.7813 C82.8594,20.7813 82.6719,20.75 82.5156,20.6406 C82.2969,20.4688 82.1563,20.2188 82.1563,19.9375 C82.1563,19.6563 82.3125,19.3594 82.5625,19.2031 C82.7188,19.1094 82.8438,19.0938 83.2813,19.0938 L88.4219,19.0938 C88.875,19.0938 89.0156,19.125 89.1875,19.2344 C89.4219,19.4063 89.5313,19.6719 89.5313,19.9375 C89.5313,20.2344 89.3906,20.5156 89.125,20.6719 C89,20.75 88.8125,20.7813 88.4219,20.7813 Z "/><text fill="#000000" font-family="sans-serif" font-size="12" font-style="italic" lengthAdjust="spacingAndGlyphs" textLength="33" x="106.25" y="28.1543">Actor</text><line style="stroke: #A80036; stroke-width: 1.5;" x1="26.5" x2="186.5" y1="40" y2="40"/><ellipse cx="36.5" cy="51.9023" fill="#84BE84" rx="3" ry="3" style="stroke: #038048; stroke-width: 1.0;"/><text fill="#000000" font-family="sans-serif" font-size="11" lengthAdjust="spacingAndGlyphs" textLength="136" x="45.5" y="54.2104">onStep(Context context)</text><rect fill="#FEFECE" filter="url(#f1)" height="65.6094" style="stroke: #A80036; stroke-width: 1.5;" width="201" x="6" y="121"/><ellipse cx="55.25" cy="137" fill="#ADD1B2" rx="11" ry="11" style="stroke: #A80036; stroke-width: 1.0;"/><path d="M57.5938,132.6719 L57.7656,132.75 C57.9844,132.4375 58.1875,132.3438 58.4844,132.3438 C58.7813,132.3438 59.0625,132.4844 59.2188,132.75 C59.3125,132.9063 59.3281,133.0313 59.3281,133.4688 L59.3281,134.8906 C59.3281,135.3125 59.2969,135.5 59.1875,135.6563 C59.0156,135.875 58.75,136.0156 58.4844,136.0156 C58.2656,136.0156 58.0313,135.9063 57.8906,135.7656 C57.75,135.6406 57.7188,135.5156 57.6563,135.1094 C57.5625,134.7031 57.3906,134.4844 56.9063,134.2031 C56.4375,133.9531 55.8281,133.7969 55.25,133.7969 C53.5156,133.7969 52.2656,135.1094 52.2656,136.8906 L52.2656,137.9844 C52.2656,139.6875 53.5625,140.7813 55.6094,140.7813 C56.375,140.7813 57.0625,140.6563 57.4844,140.3906 C57.6719,140.2969 57.6719,140.2969 58.125,139.8125 C58.3125,139.625 58.5156,139.5469 58.7344,139.5469 C59.2031,139.5469 59.5938,139.9375 59.5938,140.3906 C59.5938,140.7813 59.2656,141.2344 58.6875,141.6406 C57.9375,142.1875 56.7813,142.4844 55.5625,142.4844 C52.6719,142.4844 50.5625,140.5938 50.5625,138.0156 L50.5625,136.8906 C50.5625,134.1719 52.5625,132.0938 55.1875,132.0938 C56.0625,132.0938 56.6563,132.2344 57.5938,132.6719 Z "/><text fill="#000000" font-family="sans-serif" font-size="12" lengthAdjust="spacingAndGlyphs" textLength="94" x="75.75" y="141.1543">CoroutineActor</text><line style="stroke: #A80036; stroke-width: 1.5;" x1="7" x2="206" y1="153" y2="153"/><ellipse cx="17" cy="164.9023" fill="#84BE84" rx="3" ry="3" style="stroke: #038048; stroke-width: 1.0;"/><text fill="#000000" font-family="sans-serif" font-size="11" lengthAdjust="spacingAndGlyphs" textLength="175" x="26" y="167.2104">CoroutineActor(Coroutine task)</text><ellipse cx="17" cy="177.707" fill="#84BE84" rx="3" ry="3" style="stroke: #038048; stroke-width: 1.0;"/><text fill="#000000" font-family="sans-serif" font-size="11" lengthAdjust="spacingAndGlyphs" textLength="136" x="26" y="180.0151">onStep(Context context)</text><rect fill="#FEFECE" filter="url(#f1)" height="40" style="stroke: #A80036; stroke-width: 1.5;" width="87" x="392" y="14.5"/><ellipse cx="407" cy="30.5" fill="#B4A7E5" rx="11" ry="11" style="stroke: #A80036; stroke-width: 1.0;"/><path d="M407.9531,27.2813 L407.9531,33.7969 L409.6719,33.7969 C410.125,33.7969 410.2656,33.8281 410.4375,33.9531 C410.6719,34.125 410.7813,34.375 410.7813,34.6563 C410.7813,35.2188 410.4219,35.5 409.6719,35.5 L404.5313,35.5 C404.125,35.5 403.9219,35.4531 403.7656,35.3281 C403.5469,35.1719 403.4063,34.9063 403.4063,34.6563 C403.4063,34.3594 403.5625,34.0781 403.8125,33.9219 C403.9688,33.8125 404.0938,33.7969 404.5313,33.7969 L406.25,33.7969 L406.25,27.2813 L404.5313,27.2813 C404.1094,27.2813 403.9219,27.25 403.7656,27.1406 C403.5469,26.9688 403.4063,26.7188 403.4063,26.4375 C403.4063,26.1563 403.5625,25.8594 403.8125,25.7031 C403.9688,25.6094 404.0938,25.5938 404.5313,25.5938 L409.6719,25.5938 C410.125,25.5938 410.2656,25.625 410.4375,25.7344 C410.6719,25.9063 410.7813,26.1719 410.7813,26.4375 C410.7813,26.7344 410.6406,27.0156 410.375,27.1719 C410.25,27.25 410.0625,27.2813 409.6719,27.2813 Z "/><text fill="#000000" font-family="sans-serif" font-size="12" font-style="italic" lengthAdjust="spacingAndGlyphs" textLength="55" x="421" y="34.6543">Gateway</text><line style="stroke: #A80036; stroke-width: 1.5;" x1="393" x2="478" y1="46.5" y2="46.5"/><rect fill="#FEFECE" filter="url(#f1)" height="52.8047" style="stroke: #A80036; stroke-width: 1.5;" width="143" x="242" y="127.5"/><ellipse cx="267.35" cy="143.5" fill="#B4A7E5" rx="11" ry="11" style="stroke: #A80036; stroke-width: 1.0;"/><path d="M268.3031,140.2813 L268.3031,146.7969 L270.0219,146.7969 C270.475,146.7969 270.6156,146.8281 270.7875,146.9531 C271.0219,147.125 271.1313,147.375 271.1313,147.6563 C271.1313,148.2188 270.7719,148.5 270.0219,148.5 L264.8813,148.5 C264.475,148.5 264.2719,148.4531 264.1156,148.3281 C263.8969,148.1719 263.7563,147.9063 263.7563,147.6563 C263.7563,147.3594 263.9125,147.0781 264.1625,146.9219 C264.3188,146.8125 264.4438,146.7969 264.8813,146.7969 L266.6,146.7969 L266.6,140.2813 L264.8813,140.2813 C264.4594,140.2813 264.2719,140.25 264.1156,140.1406 C263.8969,139.9688 263.7563,139.7188 263.7563,139.4375 C263.7563,139.1563 263.9125,138.8594 264.1625,138.7031 C264.3188,138.6094 264.4438,138.5938 264.8813,138.5938 L270.0219,138.5938 C270.475,138.5938 270.6156,138.625 270.7875,138.7344 C271.0219,138.9063 271.1313,139.1719 271.1313,139.4375 C271.1313,139.7344 270.9906,140.0156 270.725,140.1719 C270.6,140.25 270.4125,140.2813 270.0219,140.2813 Z "/><text fill="#000000" font-family="sans-serif" font-size="12" font-style="italic" lengthAdjust="spacingAndGlyphs" textLength="88" x="283.65" y="147.6543">InputGateway</text><line style="stroke: #A80036; stroke-width: 1.5;" x1="243" x2="384" y1="159.5" y2="159.5"/><ellipse cx="253" cy="171.4023" fill="#84BE84" rx="3" ry="3" style="stroke: #038048; stroke-width: 1.0;"/><text fill="#000000" font-family="sans-serif" font-size="11" lengthAdjust="spacingAndGlyphs" textLength="117" x="262" y="173.7104">getIncomingShuttle()</text><rect fill="#FEFECE" filter="url(#f1)" height="65.6094" style="stroke: #A80036; stroke-width: 1.5;" width="277" x="420" y="121"/><ellipse cx="505.75" cy="137" fill="#B4A7E5" rx="11" ry="11" style="stroke: #A80036; stroke-width: 1.0;"/><path d="M506.7031,133.7813 L506.7031,140.2969 L508.4219,140.2969 C508.875,140.2969 509.0156,140.3281 509.1875,140.4531 C509.4219,140.625 509.5313,140.875 509.5313,141.1563 C509.5313,141.7188 509.1719,142 508.4219,142 L503.2813,142 C502.875,142 502.6719,141.9531 502.5156,141.8281 C502.2969,141.6719 502.1563,141.4063 502.1563,141.1563 C502.1563,140.8594 502.3125,140.5781 502.5625,140.4219 C502.7188,140.3125 502.8438,140.2969 503.2813,140.2969 L505,140.2969 L505,133.7813 L503.2813,133.7813 C502.8594,133.7813 502.6719,133.75 502.5156,133.6406 C502.2969,133.4688 502.1563,133.2188 502.1563,132.9375 C502.1563,132.6563 502.3125,132.3594 502.5625,132.2031 C502.7188,132.1094 502.8438,132.0938 503.2813,132.0938 L508.4219,132.0938 C508.875,132.0938 509.0156,132.125 509.1875,132.2344 C509.4219,132.4063 509.5313,132.6719 509.5313,132.9375 C509.5313,133.2344 509.3906,133.5156 509.125,133.6719 C509,133.75 508.8125,133.7813 508.4219,133.7813 Z "/><text fill="#000000" font-family="sans-serif" font-size="12" font-style="italic" lengthAdjust="spacingAndGlyphs" textLength="97" x="526.25" y="141.1543">OutputGateway</text><line style="stroke: #A80036; stroke-width: 1.5;" x1="421" x2="696" y1="153" y2="153"/><ellipse cx="431" cy="164.9023" fill="#84BE84" rx="3" ry="3" style="stroke: #038048; stroke-width: 1.0;"/><text fill="#000000" font-family="sans-serif" font-size="11" lengthAdjust="spacingAndGlyphs" textLength="203" x="440" y="167.2104">addOutgoingShuttle(Shuttle shuttle)</text><ellipse cx="431" cy="177.707" fill="#84BE84" rx="3" ry="3" style="stroke: #038048; stroke-width: 1.0;"/><text fill="#000000" font-family="sans-serif" font-size="11" lengthAdjust="spacingAndGlyphs" textLength="251" x="440" y="180.0151">removeOutgoingShuttle(String shuttlePrefix)</text><path d="M106.5,81.512 C106.5,94.7155 106.5,108.8202 106.5,120.9824 " fill="none" style="stroke: #A80036; stroke-width: 1.0;"/><polygon fill="none" points="99.5001,81.286,106.5,61.286,113.5,81.286,99.5001,81.286" style="stroke: #A80036; stroke-width: 1.0;"/><path d="M470.02,68.477 C487.065,84.76 507.56,104.3373 524.53,120.5487 " fill="none" style="stroke: #A80036; stroke-width: 1.0;"/><polygon fill="none" points="465.162,73.517,455.536,54.64,474.833,63.393,465.162,73.517" style="stroke: #A80036; stroke-width: 1.0;"/><path d="M400.996,68.732 C381.719,87.2972 358.061,110.083 340.207,127.2777 " fill="none" style="stroke: #A80036; stroke-width: 1.0;"/><polygon fill="none" points="396.366,63.472,415.627,54.64,406.078,73.556,396.366,63.472" style="stroke: #A80036; stroke-width: 1.0;"/></g></svg>